<svg width="38" height="38" viewBox="0 0 38 38" fill="none" xmlns="http://www.w3.org/2000/svg">
<rect x="13" y="16" width="12" height="11" fill="white"/>
<path d="M16 14C16 12.3431 17.3431 11 19 11C20.6569 11 22 12.3431 22 14V18H16V14Z" stroke="white" stroke-width="2"/>
<mask id="path-3-inside-1_1_85" fill="white">
<path fill-rule="evenodd" clip-rule="evenodd" d="M19 36C28.3888 36 36 28.3888 36 19C36 9.61116 28.3888 2 19 2C9.61116 2 2 9.61116 2 19C2 28.3888 9.61116 36 19 36ZM19 38C29.4934 38 38 29.4934 38 19C38 8.50659 29.4934 0 19 0C8.50659 0 0 8.50659 0 19C0 29.4934 8.50659 38 19 38Z"/>
</mask>
<path fill-rule="evenodd" clip-rule="evenodd" d="M19 36C28.3888 36 36 28.3888 36 19C36 9.61116 28.3888 2 19 2C9.61116 2 2 9.61116 2 19C2 28.3888 9.61116 36 19 36ZM19 38C29.4934 38 38 29.4934 38 19C38 8.50659 29.4934 0 19 0C8.50659 0 0 8.50659 0 19C0 29.4934 8.50659 38 19 38Z" fill="white"/>
<path d="M34 19C34 27.2843 27.2843 34 19 34V38C29.4934 38 38 29.4934 38 19H34ZM19 4C27.2843 4 34 10.7157 34 19H38C38 8.50659 29.4934 0 19 0V4ZM4 19C4 10.7157 10.7157 4 19 4V0C8.50659 0 0 8.50659 0 19H4ZM19 34C10.7157 34 4 27.2843 4 19H0C0 29.4934 8.50659 38 19 38V34ZM36 19C36 28.3888 28.3888 36 19 36V40C30.598 40 40 30.598 40 19H36ZM19 2C28.3888 2 36 9.61116 36 19H40C40 7.40202 30.598 -2 19 -2V2ZM2 19C2 9.61116 9.61116 2 19 2V-2C7.40202 -2 -2 7.40202 -2 19H2ZM19 36C9.61116 36 2 28.3888 2 19H-2C-2 30.598 7.40202 40 19 40V36Z" fill="white" mask="url(#path-3-inside-1_1_85)"/>
</svg>
