<svg width="164" height="28" viewBox="0 0 164 28" fill="none" xmlns="http://www.w3.org/2000/svg">
<path d="M11.9548 20.2665C11.5458 20.2662 11.1379 20.2233 10.7374 20.1385C10.3552 20.0623 9.97948 19.9553 9.6137 19.8185C9.27529 19.6865 8.94815 19.526 8.63565 19.3385C8.36228 19.1752 8.10449 18.9859 7.8657 18.7732C7.832 18.7374 7.81317 18.6896 7.81317 18.6398C7.81317 18.5901 7.832 18.5423 7.8657 18.5065L8.61484 17.5998C8.62949 17.5819 8.64779 17.5675 8.66847 17.5576C8.68914 17.5477 8.71168 17.5426 8.73449 17.5426C8.75731 17.5426 8.77985 17.5477 8.80052 17.5576C8.82119 17.5675 8.8395 17.5819 8.85415 17.5998C9.28502 17.9416 9.75714 18.2248 10.2588 18.4425C10.839 18.7034 11.4669 18.8343 12.1004 18.8265C12.775 18.869 13.4433 18.6733 13.9941 18.2718C14.2109 18.0974 14.3849 17.8735 14.5023 17.618C14.6198 17.3624 14.6773 17.0822 14.6704 16.7998C14.6732 16.5591 14.6308 16.3201 14.5456 16.0958C14.4622 15.8765 14.3218 15.6847 14.1398 15.5412C13.922 15.3524 13.6713 15.2076 13.401 15.1145C13.023 14.9831 12.6323 14.8937 12.2357 14.8478L11.653 14.7625C9.37785 14.4496 8.24027 13.3509 8.24027 11.4665C8.23197 10.9769 8.32045 10.4907 8.50039 10.0372C8.67847 9.63134 8.93716 9.26805 9.25993 8.9705C9.58891 8.63505 9.97738 8.36713 10.4045 8.18117C10.9154 8.01282 11.4494 7.92998 11.986 7.93584C12.6496 7.93535 13.3094 8.03969 13.9421 8.24517C14.537 8.41369 15.0999 8.68417 15.6068 9.04517C15.6243 9.06019 15.6384 9.07896 15.648 9.10015C15.6577 9.12134 15.6627 9.14445 15.6627 9.16784C15.6627 9.19123 15.6577 9.21433 15.648 9.23553C15.6384 9.25672 15.6243 9.27549 15.6068 9.2905L15.0242 10.2505C15.0086 10.267 14.9901 10.28 14.9695 10.289C14.9489 10.2979 14.9268 10.3025 14.9045 10.3025C14.8822 10.3025 14.8601 10.2979 14.8395 10.289C14.819 10.28 14.8004 10.267 14.7849 10.2505C14.3479 9.97576 13.8797 9.75723 13.3906 9.59984C12.9318 9.4574 12.455 9.38551 11.9756 9.3865C11.3816 9.34554 10.7945 9.53602 10.3316 9.91984C10.1455 10.0976 9.99888 10.3145 9.90192 10.5556C9.80496 10.7968 9.75988 11.0565 9.76977 11.3172C9.76318 11.5503 9.80847 11.782 9.90222 11.9945C9.99596 12.207 10.1357 12.3949 10.3108 12.5438C10.8734 12.9442 11.5316 13.1801 12.2149 13.2265L12.7767 13.3118C13.7152 13.3953 14.6072 13.7671 15.3363 14.3785C15.6292 14.6746 15.8568 15.0314 16.004 15.4251C16.1511 15.8189 16.2144 16.2403 16.1895 16.6612C16.2008 17.1648 16.1124 17.6656 15.9294 18.1332C15.7479 18.5484 15.4734 18.9139 15.1282 19.1998C14.7362 19.5357 14.2837 19.7894 13.7964 19.9465C13.2034 20.1542 12.5815 20.2623 11.9548 20.2665Z" fill="white"/>
<path d="M27.0525 20.0532C26.9588 20.0532 26.8964 19.9892 26.8652 19.8718L24.368 10.9865L21.8501 19.8718C21.8425 19.9227 21.8173 19.9691 21.7791 20.0024C21.7409 20.0357 21.6922 20.0538 21.642 20.0532H20.7056C20.6015 20.0532 20.5391 19.9892 20.5183 19.8718L17.6882 8.30918C17.6882 8.19185 17.6882 8.13852 17.8234 8.13852H18.9576C18.9822 8.13555 19.0071 8.13763 19.031 8.14463C19.0548 8.15163 19.077 8.1634 19.0964 8.17928C19.1157 8.19516 19.1318 8.21481 19.1437 8.23711C19.1556 8.25941 19.1631 8.28391 19.1656 8.30918L21.2466 17.1625L23.6501 8.30918C23.6598 8.26027 23.686 8.2164 23.724 8.18522C23.762 8.15404 23.8095 8.13751 23.8582 8.13852H24.7322C24.7802 8.13548 24.8275 8.15151 24.8644 8.18329C24.9012 8.21506 24.9246 8.26015 24.9299 8.30918L27.3958 17.1625L29.4143 8.30918C29.4243 8.25838 29.452 8.21304 29.4922 8.18164C29.5324 8.15023 29.5824 8.1349 29.6328 8.13852H30.7461C30.8606 8.13852 30.9126 8.13852 30.8814 8.30918L28.1762 19.8718C28.1709 19.9237 28.1463 19.9715 28.1076 20.0053C28.0688 20.0391 28.0189 20.0562 27.9681 20.0532H27.0525Z" fill="white"/>
<path d="M33.1705 8.30919C33.1676 8.28955 33.1685 8.26951 33.1732 8.25024C33.1779 8.23097 33.1863 8.21285 33.198 8.19696C33.2096 8.18107 33.2242 8.16771 33.2409 8.15768C33.2577 8.14764 33.2762 8.14113 33.2954 8.13852H34.4711C34.5856 8.13852 34.648 8.13852 34.648 8.30919V19.8719C34.6515 19.8965 34.6493 19.9216 34.6417 19.9453C34.634 19.9689 34.6211 19.9904 34.6039 20.008C34.5867 20.0256 34.5658 20.0388 34.5427 20.0467C34.5197 20.0545 34.4952 20.0568 34.4711 20.0532H33.2954C33.1809 20.0532 33.1289 19.9892 33.1289 19.8719L33.1705 8.30919Z" fill="white"/>
<path d="M41.4221 20.2667C41.0131 20.2664 40.6053 20.2235 40.2047 20.1387C39.8226 20.0625 39.4468 19.9555 39.081 19.8187C38.7426 19.6867 38.4155 19.5262 38.103 19.3387C37.8312 19.1781 37.5766 18.9886 37.3434 18.7734C37.3255 18.7564 37.3111 18.7358 37.3013 18.7128C37.2915 18.6899 37.2864 18.6651 37.2864 18.64C37.2864 18.615 37.2915 18.5902 37.3013 18.5672C37.3111 18.5443 37.3255 18.5237 37.3434 18.5067L38.0926 17.6C38.1072 17.5821 38.1255 17.5677 38.1462 17.5578C38.1669 17.5479 38.1894 17.5428 38.2122 17.5428C38.2351 17.5428 38.2576 17.5479 38.2783 17.5578C38.2989 17.5677 38.3172 17.5821 38.3319 17.6C38.7628 17.9417 39.2349 18.225 39.7365 18.4427C40.3171 18.7026 40.9447 18.8335 41.5782 18.8267C42.2529 18.871 42.9218 18.6751 43.4718 18.272C43.6886 18.0976 43.8627 17.8737 43.9801 17.6182C44.0975 17.3626 44.1551 17.0824 44.1482 16.8C44.1509 16.5593 44.1086 16.3203 44.0233 16.096C43.9437 15.8774 43.8069 15.6855 43.6279 15.5414C43.4063 15.3525 43.1523 15.2078 42.8788 15.1147C42.5011 14.9822 42.1103 14.8927 41.7134 14.848L41.1412 14.7627C38.8591 14.4498 37.718 13.3511 37.718 11.4667C37.7097 10.9771 37.7982 10.4909 37.9781 10.0374C38.1556 9.62837 38.4184 9.26426 38.7481 8.97069C39.098 8.6578 39.5046 8.41858 39.9446 8.26669C40.4518 8.09764 40.9825 8.01477 41.5157 8.02136C42.1794 8.02087 42.8392 8.12521 43.4718 8.33069C44.0377 8.50796 44.5718 8.77813 45.0534 9.13069C45.0727 9.14444 45.0885 9.16278 45.0994 9.18414C45.1103 9.2055 45.116 9.22925 45.116 9.25336C45.116 9.27747 45.1103 9.30122 45.0994 9.32258C45.0885 9.34394 45.0727 9.36228 45.0534 9.37603L44.4707 10.336C44.4552 10.3525 44.4366 10.3656 44.416 10.3745C44.3955 10.3834 44.3734 10.388 44.351 10.388C44.3287 10.388 44.3066 10.3834 44.2861 10.3745C44.2655 10.3656 44.2469 10.3525 44.2314 10.336C43.8052 10.0332 43.3438 9.78593 42.858 9.60003C42.3992 9.45759 41.9223 9.3857 41.4429 9.38669C40.849 9.34573 40.2618 9.53621 39.799 9.92003C39.6128 10.0978 39.4662 10.3147 39.3693 10.5558C39.2723 10.797 39.2272 11.0567 39.2371 11.3174C39.2305 11.5505 39.2758 11.7822 39.3696 11.9947C39.4633 12.2072 39.603 12.3951 39.7782 12.544C40.3407 12.9443 40.9989 13.1803 41.6822 13.2267L42.2441 13.312C43.1834 13.3916 44.0766 13.7638 44.8037 14.3787C45.0984 14.6738 45.328 15.0302 45.4769 15.424C45.6259 15.8178 45.6908 16.2397 45.6672 16.6614C45.6753 17.1657 45.5833 17.6666 45.3967 18.1334C45.2153 18.5486 44.9408 18.9141 44.5956 19.2C44.2036 19.5359 43.7511 19.7896 43.2637 19.9467C42.6707 20.1544 42.0488 20.2624 41.4221 20.2667Z" fill="white"/>
<path d="M51.8675 20.2666C51.4585 20.2667 51.0506 20.2238 50.6501 20.1385C50.2679 20.0623 49.8922 19.9553 49.5264 19.8186C49.188 19.6866 48.8609 19.526 48.5484 19.3385C48.275 19.1753 48.0172 18.986 47.7784 18.7732C47.7447 18.7374 47.7259 18.6896 47.7259 18.6399C47.7259 18.5901 47.7447 18.5423 47.7784 18.5066L48.5276 17.5999C48.59 17.5146 48.6732 17.5146 48.7669 17.5999C49.1977 17.9416 49.6699 18.2248 50.1715 18.4426C50.7514 18.7047 51.3795 18.8356 52.0132 18.8265C52.6877 18.8691 53.356 18.6733 53.9068 18.2719C54.1223 18.097 54.2948 17.8727 54.4105 17.617C54.5261 17.3614 54.5817 17.0815 54.5727 16.7999C54.5788 16.5599 54.54 16.3209 54.4583 16.0959C54.371 15.8788 54.2314 15.6879 54.0525 15.5412C53.8332 15.3547 53.583 15.2101 53.3137 15.1146C52.9357 14.9832 52.545 14.8938 52.1484 14.8479L51.5657 14.7626C49.2906 14.4497 48.153 13.351 48.153 11.4666C48.1447 10.977 48.2332 10.4908 48.4131 10.0372C48.5912 9.63139 48.8499 9.2681 49.1727 8.97055C49.5241 8.65987 49.9302 8.42091 50.3692 8.26655C50.8767 8.09897 51.4072 8.01613 51.9403 8.02122C52.6074 8.01997 53.2708 8.12431 53.9068 8.33055C54.4703 8.50564 55.0014 8.77603 55.4779 9.13055C55.4954 9.14557 55.5095 9.16433 55.5191 9.18553C55.5288 9.20672 55.5338 9.22983 55.5338 9.25322C55.5338 9.27661 55.5288 9.29971 55.5191 9.32091C55.5095 9.3421 55.4954 9.36087 55.4779 9.37588L54.8953 10.3359C54.8797 10.3523 54.8612 10.3654 54.8406 10.3744C54.82 10.3833 54.7979 10.3879 54.7756 10.3879C54.7533 10.3879 54.7312 10.3833 54.7106 10.3744C54.6901 10.3654 54.6715 10.3523 54.656 10.3359C54.2363 10.0346 53.782 9.78738 53.3033 9.59988C52.8445 9.45745 52.3677 9.38556 51.8883 9.38655C51.2943 9.34558 50.7072 9.53607 50.2443 9.91988C50.0582 10.0977 49.9116 10.3145 49.8146 10.5557C49.7177 10.7968 49.6726 11.0566 49.6825 11.3172C49.6759 11.5504 49.7212 11.782 49.8149 11.9946C49.9087 12.2071 50.0484 12.395 50.2235 12.5439C50.7861 12.9442 51.4443 13.1802 52.1276 13.2266L52.6895 13.3119C53.6279 13.3954 54.5199 13.7671 55.249 14.3786C55.5419 14.6746 55.7695 15.0315 55.9167 15.4252C56.0639 15.8189 56.1271 16.2404 56.1022 16.6612C56.1136 17.1649 56.0251 17.6656 55.8421 18.1332C55.6607 18.5485 55.3862 18.9139 55.0409 19.1999C54.6451 19.5358 54.1892 19.7894 53.6987 19.9466C53.1095 20.1551 52.4909 20.2632 51.8675 20.2666Z" fill="white"/>
<path d="M63.1262 17.44C63.0742 17.2587 63.0222 17.088 62.9806 16.9067C62.9389 16.7254 62.9181 16.512 62.8869 16.256C62.8557 16 62.8869 15.7014 62.8869 15.3494C62.8869 14.9974 62.8869 14.5814 62.8869 14.0907C62.8869 13.6 62.8869 13.184 62.8869 12.832C62.8869 12.48 62.8869 12.1814 62.8869 11.9254C62.8869 11.6694 62.9493 11.456 62.9806 11.2747C63.0118 11.0934 63.0742 10.9227 63.1262 10.7414C63.3606 9.88657 63.8658 9.13604 64.5621 8.60802C65.2867 8.13014 66.1356 7.88842 66.9968 7.91468C67.7916 7.8956 68.5751 8.11028 69.2546 8.53335C69.9271 8.96185 70.4512 9.59618 70.7529 10.3467C70.7713 10.3864 70.774 10.4319 70.7604 10.4737C70.7468 10.5154 70.718 10.5502 70.6801 10.5707L69.6396 11.0827C69.6187 11.0972 69.5946 11.1063 69.5695 11.1091C69.5443 11.112 69.5189 11.1085 69.4954 11.0991C69.4718 11.0897 69.4509 11.0745 69.4343 11.0549C69.4178 11.0353 69.4061 11.0119 69.4003 10.9867C69.1842 10.5426 68.8751 10.1528 68.4951 9.84535C68.0624 9.5286 67.5382 9.37076 67.0072 9.39735C66.458 9.36674 65.915 9.52848 65.4673 9.85602C65.0603 10.1905 64.7566 10.6388 64.5933 11.1467L64.4997 11.5627C64.4646 11.7423 64.4402 11.924 64.4268 12.1067C64.4268 12.32 64.4268 12.5867 64.4268 12.9067C64.4268 13.2267 64.4268 13.6214 64.4268 14.0907C64.4268 14.56 64.4268 14.9547 64.4268 15.2747C64.4268 15.5947 64.4268 15.8614 64.4268 16.0854C64.4417 16.2679 64.466 16.4495 64.4997 16.6294C64.4997 16.7894 64.5621 16.9174 64.5933 17.0347C64.7565 17.5456 65.0599 17.9975 65.4673 18.336C65.9184 18.6553 66.4598 18.8128 67.0072 18.784C67.5382 18.8106 68.0624 18.6528 68.4951 18.336C68.8792 18.0328 69.1891 17.642 69.4003 17.1947C69.4003 17.0774 69.5252 17.0454 69.6396 17.1094L70.6801 17.6107C70.7188 17.6332 70.7478 17.6699 70.7613 17.7134C70.7748 17.7569 70.7718 17.804 70.7529 17.8454C70.4534 18.5763 69.941 19.1947 69.2858 19.616C68.6074 20.0428 67.8238 20.2612 67.028 20.2454C66.1668 20.2716 65.318 20.0299 64.5933 19.552C63.8845 19.0393 63.367 18.2944 63.1262 17.44Z" fill="white"/>
<path d="M75.7257 20.0531C75.6112 20.0531 75.5592 19.9891 75.5592 19.8718V15.1785L72.1256 8.33046C72.1256 8.20246 72.1256 8.13846 72.2609 8.13846H73.4679C73.5222 8.14024 73.575 8.15705 73.6208 8.18709C73.6666 8.21713 73.7036 8.25929 73.728 8.30912L76.3292 13.4078L78.9095 8.30912C78.9255 8.25763 78.9577 8.21298 79.0009 8.18212C79.0442 8.15126 79.0962 8.13591 79.1489 8.13846H80.3246C80.4598 8.13846 80.5119 8.20246 80.4599 8.33046L77.0263 15.1785V19.8718C77.0263 19.9891 77.0263 20.0531 76.8598 20.0531H75.7257Z" fill="white"/>
<path d="M82.5825 8.30921C82.5789 8.28597 82.5808 8.26219 82.5879 8.23982C82.595 8.21745 82.6072 8.19712 82.6234 8.18048C82.6396 8.16385 82.6594 8.15138 82.6813 8.14409C82.7031 8.1368 82.7263 8.1349 82.749 8.13855H86.9109C87.8405 8.07714 88.7585 8.37813 89.4808 8.98121C89.7761 9.27865 90.0066 9.63675 90.1572 10.032C90.3078 10.4273 90.3752 10.8507 90.3548 11.2745C90.3838 11.8659 90.231 12.4517 89.9178 12.9492C89.6409 13.3587 89.2542 13.6773 88.8045 13.8665C89.0192 13.9391 89.2225 14.0433 89.408 14.1759C89.6257 14.3291 89.8188 14.5163 89.9803 14.7305C90.1598 14.9805 90.3002 15.2576 90.3964 15.5519C90.5138 15.8943 90.5702 16.2556 90.5629 16.6185C90.5848 17.0944 90.5027 17.5693 90.3227 18.0085C90.1427 18.4477 89.8693 18.8401 89.5224 19.1572C88.7193 19.7851 87.7208 20.0922 86.7132 20.0212H82.749C82.6345 20.0212 82.5825 19.9572 82.5825 19.8399V8.30921ZM86.838 13.2905C87.3843 13.3371 87.9265 13.1608 88.3467 12.7999C88.5205 12.6236 88.6566 12.412 88.7462 12.1788C88.8357 11.9455 88.8769 11.6957 88.867 11.4452C88.8771 11.1931 88.836 10.9416 88.7465 10.7066C88.657 10.4716 88.5208 10.2582 88.3467 10.0799C87.9203 9.73166 87.3818 9.56035 86.838 9.59988H84.2056C84.1328 9.59988 84.1016 9.59988 84.1016 9.69588V13.2265C84.0999 13.241 84.1014 13.2556 84.1061 13.2693C84.1107 13.283 84.1183 13.2955 84.1283 13.3058C84.1384 13.316 84.1505 13.3238 84.1639 13.3286C84.1773 13.3334 84.1916 13.3349 84.2056 13.3332L86.838 13.2905ZM84.2056 18.6239H86.9213C87.4941 18.6806 88.0658 18.5044 88.5132 18.1332C88.8665 17.7475 89.0632 17.2383 89.0632 16.7092C89.0632 16.1801 88.8665 15.6709 88.5132 15.2852C88.0721 14.8988 87.4998 14.707 86.9213 14.7519H84.2056C84.1328 14.7519 84.1016 14.7519 84.1016 14.8479V18.5705C84.1087 18.5921 84.1231 18.6104 84.1421 18.6222C84.1612 18.6339 84.1837 18.6383 84.2056 18.6345V18.6239Z" fill="white"/>
<path d="M93.2472 8.30934C93.2437 8.2861 93.2455 8.26232 93.2526 8.23995C93.2597 8.21758 93.2719 8.19725 93.2881 8.18061C93.3043 8.16397 93.3242 8.1515 93.346 8.14422C93.3678 8.13693 93.391 8.13503 93.4137 8.13867H100.406C100.52 8.13867 100.583 8.13867 100.583 8.30934V9.37601C100.595 9.40323 100.6 9.43352 100.596 9.4634C100.593 9.49328 100.581 9.52153 100.563 9.54493C100.544 9.56832 100.52 9.58589 100.492 9.59564C100.464 9.60538 100.434 9.6069 100.406 9.60001H94.8704C94.8563 9.59829 94.842 9.59987 94.8286 9.60462C94.8153 9.60938 94.8031 9.61718 94.7931 9.62745C94.7831 9.63772 94.7754 9.65019 94.7708 9.66391C94.7662 9.67763 94.7646 9.69225 94.7663 9.70667V13.2053C94.7646 13.2198 94.7662 13.2344 94.7708 13.2481C94.7754 13.2618 94.7831 13.2743 94.7931 13.2846C94.8031 13.2948 94.8153 13.3026 94.8286 13.3074C94.842 13.3121 94.8563 13.3137 94.8704 13.312H99.5733C99.6878 13.312 99.7398 13.376 99.7398 13.4933V14.56C99.7398 14.6773 99.7398 14.7413 99.5733 14.7413H94.8704C94.8079 14.7413 94.7663 14.7413 94.7663 14.8373V18.464C94.7646 18.4784 94.7662 18.493 94.7708 18.5068C94.7754 18.5205 94.7831 18.533 94.7931 18.5432C94.8031 18.5535 94.8153 18.5613 94.8286 18.5661C94.842 18.5708 94.8563 18.5724 94.8704 18.5707H100.406C100.43 18.5671 100.454 18.5693 100.477 18.5772C100.5 18.585 100.521 18.5983 100.538 18.6159C100.556 18.6335 100.569 18.655 100.576 18.6786C100.584 18.7022 100.586 18.7274 100.583 18.752V19.8187C100.586 19.8433 100.584 19.8685 100.576 19.8921C100.569 19.9157 100.556 19.9372 100.538 19.9548C100.521 19.9724 100.5 19.9857 100.477 19.9935C100.454 20.0014 100.43 20.0036 100.406 20H93.4137C93.2992 20 93.2472 19.936 93.2472 19.8187V8.30934Z" fill="white"/>
<path d="M109.947 20.0533C109.896 20.0523 109.847 20.034 109.808 20.0011C109.768 19.9683 109.74 19.9228 109.729 19.872L107.398 14.9973H104.838C104.824 14.9956 104.81 14.9972 104.797 15.002C104.783 15.0067 104.771 15.0145 104.761 15.0248C104.751 15.0351 104.744 15.0475 104.739 15.0612C104.734 15.075 104.733 15.0896 104.734 15.104V19.872C104.738 19.8957 104.736 19.9198 104.728 19.9425C104.721 19.9652 104.709 19.9861 104.693 20.0035C104.677 20.0209 104.658 20.0344 104.636 20.043C104.614 20.0516 104.591 20.0552 104.568 20.0533H103.382C103.267 20.0533 103.215 19.9893 103.215 19.872V8.30934C103.212 8.2861 103.214 8.26232 103.221 8.23995C103.228 8.21758 103.24 8.19725 103.256 8.18061C103.272 8.16397 103.292 8.1515 103.314 8.14422C103.336 8.13693 103.359 8.13503 103.382 8.13867H107.544C108.05 8.12695 108.554 8.21009 109.032 8.38401C109.454 8.53124 109.843 8.76333 110.176 9.06667C110.498 9.3622 110.754 9.72621 110.925 10.1333C111.105 10.5832 111.194 11.0659 111.185 11.552C111.204 12.2851 110.989 13.0043 110.571 13.6C110.152 14.1691 109.564 14.5843 108.896 14.784L111.373 19.8187C111.388 19.8404 111.396 19.8666 111.396 19.8933C111.396 19.9201 111.388 19.9462 111.373 19.968C111.36 19.9902 111.342 20.0082 111.32 20.0196C111.297 20.031 111.272 20.0353 111.248 20.032L109.947 20.0533ZM109.146 13.0347C109.337 12.8471 109.486 12.6194 109.583 12.3671C109.68 12.1149 109.723 11.8441 109.708 11.5733C109.724 11.3009 109.682 11.028 109.585 10.7738C109.488 10.5195 109.338 10.2901 109.146 10.1013C108.694 9.73804 108.127 9.55941 107.554 9.60001H104.838C104.766 9.60001 104.734 9.60001 104.734 9.70667V13.44C104.734 13.5147 104.734 13.5467 104.838 13.5467H107.554C108.128 13.5843 108.696 13.4018 109.146 13.0347Z" fill="white"/>
<path d="M118.437 17.4613C118.437 17.2799 118.344 17.0986 118.302 16.9173C118.261 16.7359 118.24 16.5119 118.209 16.2559C118.177 15.9999 118.209 15.7013 118.209 15.3493C118.209 14.9973 118.209 14.5813 118.209 14.0906C118.209 13.5999 118.209 13.1839 118.209 12.8319C118.209 12.4799 118.209 12.1813 118.209 11.9253C118.209 11.6693 118.271 11.4559 118.302 11.2746C118.333 11.0933 118.385 10.9013 118.437 10.7306C118.674 9.86567 119.197 9.11173 119.915 8.59727C120.662 8.10848 121.536 7.86305 122.422 7.89327C122.891 7.88615 123.357 7.95087 123.806 8.08527C124.557 8.28929 125.227 8.72949 125.721 9.34393C125.944 9.62479 126.133 9.93291 126.283 10.2613C126.3 10.2763 126.314 10.2951 126.324 10.3162C126.333 10.3374 126.339 10.3605 126.339 10.3839C126.339 10.4073 126.333 10.4304 126.324 10.4516C126.314 10.4728 126.3 10.4916 126.283 10.5066L125.242 11.0186C125.222 11.0332 125.199 11.0426 125.174 11.0461C125.15 11.0496 125.125 11.0471 125.101 11.0388C125.078 11.0305 125.057 11.0165 125.04 10.9982C125.022 10.9798 125.01 10.9576 125.003 10.9333C124.768 10.4457 124.408 10.0327 123.962 9.7386C123.502 9.46571 122.975 9.33255 122.443 9.3546C121.872 9.32739 121.307 9.4881 120.831 9.81327C120.396 10.1345 120.081 10.5969 119.936 11.1253C119.891 11.2501 119.856 11.3786 119.832 11.5093C119.794 11.6925 119.766 11.8776 119.748 12.0639C119.748 12.2879 119.748 12.5653 119.748 12.8853C119.748 13.2053 119.748 13.5893 119.748 14.0479C119.748 14.5066 119.748 14.8906 119.748 15.2106C119.748 15.5306 119.748 15.8079 119.748 16.0319C119.766 16.2183 119.793 16.4036 119.832 16.5866C119.853 16.718 119.888 16.8467 119.936 16.9706C120.084 17.5003 120.399 17.9652 120.831 18.2933C121.31 18.61 121.873 18.7665 122.443 18.7413C122.994 18.7568 123.537 18.6046 124.004 18.3039C124.455 18.0049 124.787 17.5512 124.94 17.0239C125.008 16.7788 125.06 16.5294 125.096 16.2773C125.142 15.9058 125.163 15.5316 125.159 15.1573C125.159 15.0826 125.159 15.0506 125.065 15.0506H122.776C122.752 15.0542 122.728 15.052 122.705 15.0441C122.682 15.0363 122.661 15.023 122.643 15.0054C122.626 14.9878 122.613 14.9663 122.606 14.9427C122.598 14.919 122.596 14.8939 122.599 14.8693V13.8666C122.599 13.7493 122.662 13.6959 122.776 13.6959H126.48C126.595 13.6959 126.657 13.7493 126.657 13.8666V14.7626C126.658 15.2616 126.63 15.7602 126.574 16.2559C126.536 16.6382 126.467 17.0165 126.366 17.3866C126.13 18.2492 125.612 19.0024 124.899 19.5199C124.162 20.0164 123.294 20.2695 122.412 20.2453C121.526 20.2755 120.652 20.0301 119.905 19.5413C119.2 19.0379 118.683 18.3047 118.437 17.4613Z" fill="white"/>
<path d="M132.141 8.30922C132.15 8.2603 132.177 8.21644 132.215 8.18525C132.253 8.15407 132.3 8.13754 132.349 8.13855H133.462C133.513 8.13494 133.563 8.15027 133.603 8.18167C133.643 8.21308 133.671 8.25842 133.681 8.30922L137.666 19.8719C137.666 19.9892 137.666 20.0532 137.541 20.0532H136.303C136.251 20.0565 136.199 20.0397 136.159 20.0061C136.119 19.9725 136.092 19.9246 136.084 19.8719L135.262 17.2799H130.559L129.664 19.8719C129.653 19.9227 129.625 19.9681 129.586 20.001C129.546 20.0338 129.497 20.0522 129.446 20.0532H128.249C128.135 20.0532 128.093 19.9892 128.135 19.8719L132.141 8.30922ZM134.742 15.8399L132.911 10.4319L131.069 15.8399H134.742Z" fill="white"/>
<path d="M141.172 20.0533C141.058 20.0533 141.006 19.9893 141.006 19.8719V9.69593C141.006 9.62126 141.006 9.58926 140.901 9.58926H137.78C137.756 9.59284 137.732 9.59062 137.708 9.58277C137.685 9.57492 137.664 9.56167 137.647 9.54406C137.63 9.52645 137.617 9.50498 137.61 9.48134C137.602 9.45771 137.6 9.43257 137.603 9.40793V8.34126C137.603 8.22393 137.666 8.1706 137.78 8.1706H145.865C145.887 8.16695 145.91 8.16885 145.932 8.17614C145.954 8.18342 145.974 8.19589 145.99 8.21253C146.006 8.22917 146.019 8.2495 146.026 8.27187C146.033 8.29424 146.035 8.31802 146.031 8.34126V9.40793C146.031 9.52526 145.979 9.58926 145.865 9.58926H142.681C142.608 9.58926 142.577 9.58926 142.577 9.69593V19.8719C142.577 19.9893 142.577 20.0533 142.41 20.0533H141.172Z" fill="white"/>
<path d="M148.133 8.30934C148.129 8.2861 148.131 8.26232 148.138 8.23995C148.145 8.21758 148.157 8.19725 148.174 8.18061C148.19 8.16397 148.21 8.1515 148.231 8.14422C148.253 8.13693 148.276 8.13503 148.299 8.13867H155.291C155.406 8.13867 155.468 8.13867 155.468 8.30934V9.37601C155.471 9.40065 155.469 9.42579 155.462 9.44942C155.454 9.47306 155.441 9.49453 155.424 9.51214C155.407 9.52975 155.386 9.543 155.363 9.55085C155.34 9.5587 155.315 9.56092 155.291 9.55734H149.756C149.683 9.55734 149.652 9.55734 149.652 9.66401V13.1627C149.652 13.2373 149.652 13.2693 149.756 13.2693H154.459C154.573 13.2693 154.625 13.3333 154.625 13.4507V14.5173C154.625 14.6347 154.573 14.6987 154.459 14.6987H149.756C149.683 14.6987 149.652 14.6987 149.652 14.7947V18.4213C149.652 18.496 149.652 18.528 149.756 18.528H155.291C155.315 18.5244 155.34 18.5267 155.363 18.5345C155.386 18.5423 155.407 18.5556 155.424 18.5732C155.441 18.5908 155.454 18.6123 155.462 18.6359C155.469 18.6596 155.471 18.6847 155.468 18.7093V19.776C155.471 19.8007 155.469 19.8258 155.462 19.8494C155.454 19.8731 155.441 19.8945 155.424 19.9121C155.407 19.9297 155.386 19.943 155.363 19.9508C155.34 19.9587 155.315 19.9609 155.291 19.9573H148.299C148.185 19.9573 148.133 19.8933 148.133 19.776V8.30934Z" fill="white"/>
<path d="M2.20581 0H0V2.26133H2.20581V0Z" fill="#FF643C"/>
<path d="M94.0592 0H76.9746V2.26133H94.0592V0Z" fill="#FF643C"/>
<path d="M68.5049 0H0V2.26133H68.5049V0Z" fill="#FF643C"/>
<path d="M164 0H161.794V2.26133H164V0Z" fill="#FF643C"/>
<path d="M164 15.9998H161.794V18.2612H164V15.9998Z" fill="#FF643C"/>
<path d="M73.8529 0H71.6471V2.26133H73.8529V0Z" fill="#FF643C"/>
<path d="M129.082 0H111.997V2.26133H129.082V0Z" fill="#FF643C"/>
<path d="M164 0H132.203V2.26133H164V0Z" fill="#FF643C"/>
<path d="M103.548 0H97.1803V2.26133H103.548V0Z" fill="#FF643C"/>
<path d="M63.698 28L80.7826 28V25.7387L63.698 25.7387V28Z" fill="#FF643C"/>
<path d="M89.2418 28L163.99 28V25.7387L89.2418 25.7387V28Z" fill="#FF643C"/>
<path d="M83.8938 28H86.0996V25.7387H83.8938V28Z" fill="#FF643C"/>
<path d="M6.86646e-05 28L30.7565 28V25.7387L6.86646e-05 25.7387V28Z" fill="#FF643C"/>
<path d="M48.8821 28H51.0879V25.7387H48.8821V28Z" fill="#FF643C"/>
<path d="M54.2091 28H60.5768V25.7387H54.2091V28Z" fill="#FF643C"/>
<path d="M2.20581 25.7282H0V27.9895H2.20581V25.7282Z" fill="#FF643C"/>
<path d="M2.20581 11.7225H0V27.9892H2.20581V11.7225Z" fill="#FF643C"/>
<path d="M2.20581 0H0V8.52267H2.20581V0Z" fill="#FF643C"/>
<path d="M164 0H161.794V12.7893H164V0Z" fill="#FF643C"/>
<path d="M164 21.4614H161.794V27.9894H164V21.4614Z" fill="#FF643C"/>
<path d="M164 25.7282H161.794V27.9895H164V25.7282Z" fill="#FF643C"/>
</svg>
