<?xml version="1.0" standalone="no"?>
<!DOCTYPE svg PUBLIC "-//W3C//DTD SVG 20010904//EN"
 "http://www.w3.org/TR/2001/REC-SVG-20010904/DTD/svg10.dtd">
<svg version="1.0" xmlns="http://www.w3.org/2000/svg"
 width="192.000000pt" height="192.000000pt" viewBox="0 0 192.000000 192.000000"
 preserveAspectRatio="xMidYMid meet">
<metadata>
Created by potrace 1.14, written by Peter Selinger 2001-2017
</metadata>
<g transform="translate(0.000000,192.000000) scale(0.100000,-0.100000)"
fill="#000000" stroke="none">
<path d="M814 1909 c-3 -5 -9 -7 -13 -5 -4 3 -25 0 -47 -6 -21 -6 -42 -11 -46
-10 -4 1 -28 -7 -53 -18 -25 -11 -49 -20 -53 -20 -19 -1 -42 -12 -42 -21 0 -5
-3 -8 -7 -7 -15 4 -53 -13 -53 -23 0 -6 -4 -8 -9 -4 -5 3 -15 -1 -23 -8 -7 -7
-20 -16 -28 -20 -38 -19 -59 -34 -55 -39 3 -3 -8 -11 -25 -18 -16 -7 -27 -16
-25 -20 3 -5 -4 -11 -15 -15 -11 -3 -20 -14 -20 -22 0 -9 -3 -14 -6 -10 -4 3
-18 -8 -33 -25 -14 -17 -36 -41 -48 -54 -13 -13 -23 -28 -23 -34 0 -5 -4 -10
-10 -10 -5 0 -10 -4 -10 -10 0 -5 -7 -18 -15 -27 -8 -10 -14 -21 -13 -24 2 -3
-5 -13 -15 -23 -9 -10 -15 -22 -12 -27 4 -5 2 -9 -4 -9 -5 0 -17 -21 -27 -47
-10 -27 -22 -54 -27 -60 -5 -7 -6 -13 -2 -13 4 0 2 -6 -4 -13 -6 -8 -8 -17 -4
-20 3 -4 1 -7 -5 -7 -7 0 -11 -3 -10 -7 1 -5 -2 -28 -7 -53 -5 -25 -8 -51 -6
-57 1 -7 -2 -13 -8 -13 -6 0 -8 -61 -5 -157 5 -183 6 -203 17 -203 4 0 7 -13
7 -29 0 -17 5 -33 10 -36 6 -3 10 -16 10 -29 0 -12 5 -27 12 -34 7 -7 8 -12 4
-12 -4 0 2 -16 14 -35 12 -19 19 -39 15 -45 -3 -5 -2 -10 3 -10 4 0 19 -19 32
-42 13 -24 28 -46 34 -50 6 -4 7 -8 2 -8 -5 0 1 -9 14 -20 13 -11 19 -20 15
-20 -4 0 4 -11 19 -25 15 -14 25 -25 22 -25 -7 0 78 -82 119 -115 21 -16 44
-35 51 -42 6 -7 14 -9 18 -6 3 4 6 1 6 -5 0 -7 7 -12 15 -12 8 0 15 -5 15 -11
0 -5 4 -8 8 -5 5 3 18 -3 29 -13 10 -10 36 -24 56 -30 20 -7 37 -16 37 -21 0
-5 9 -7 20 -5 11 2 20 0 20 -4 0 -8 32 -18 90 -28 13 -2 27 -7 30 -11 11 -15
347 -25 356 -11 3 5 9 7 13 5 4 -3 25 0 47 6 21 6 42 11 46 10 4 -1 24 6 45
15 21 9 44 18 51 19 44 8 232 119 232 137 0 5 3 7 7 4 3 -4 19 7 35 23 15 16
28 27 28 24 0 -8 63 60 93 100 12 16 30 37 40 47 9 11 17 24 17 29 0 6 5 10
12 10 6 0 9 3 5 6 -3 4 5 23 18 43 14 19 25 42 25 49 0 7 4 11 9 8 5 -4 8 5 6
19 -1 14 1 25 4 25 3 0 12 15 19 32 7 18 17 41 22 50 6 11 5 18 -3 21 -9 4 -9
6 1 6 6 1 12 12 12 26 0 14 4 25 8 25 4 0 8 18 7 40 -1 22 2 40 6 40 12 0 4
281 -9 311 -8 20 -7 30 1 39 7 8 8 11 1 7 -7 -4 -16 14 -24 48 -7 30 -17 55
-22 55 -6 0 -8 6 -5 13 2 6 -4 27 -15 44 -11 18 -17 37 -13 43 3 5 2 10 -3 10
-4 0 -19 19 -32 43 -13 23 -28 45 -34 49 -6 4 -7 8 -2 8 5 0 -1 9 -14 20 -13
11 -19 20 -15 20 4 0 -4 11 -19 25 -15 14 -25 25 -22 25 7 0 -78 82 -119 115
-21 17 -44 35 -51 42 -6 7 -14 9 -18 6 -3 -4 -6 -1 -6 5 0 7 -7 12 -15 12 -8
0 -15 5 -15 11 0 5 -4 8 -8 5 -5 -3 -18 3 -29 13 -10 10 -36 24 -56 30 -20 7
-37 16 -37 21 0 5 -9 7 -20 5 -11 -2 -20 0 -20 6 0 5 -9 9 -19 9 -11 0 -22 4
-25 8 -2 4 -19 9 -37 10 -18 2 -36 6 -39 10 -7 10 -53 13 -213 17 -75 1 -140
-2 -143 -6z m243 -132 c6 -4 15 -2 19 4 5 8 8 8 13 0 4 -6 20 -12 37 -13 16
-1 34 -4 39 -7 6 -3 21 -6 33 -7 13 0 28 -7 32 -14 4 -7 13 -9 19 -6 6 4 11 3
11 -3 0 -6 6 -8 13 -5 8 3 20 -2 27 -10 7 -9 16 -13 21 -10 5 3 9 0 9 -5 0 -6
5 -11 12 -11 14 0 103 -56 142 -90 46 -39 123 -122 150 -160 38 -54 107 -191
100 -201 -3 -5 -1 -9 4 -9 8 0 27 -68 39 -140 8 -47 11 -220 4 -215 -4 2 -8
-2 -8 -10 0 -8 4 -15 9 -15 5 0 4 -9 -2 -21 -6 -11 -12 -33 -12 -50 -1 -16 -4
-29 -7 -29 -4 0 -7 -10 -9 -23 -2 -30 -41 -120 -56 -129 -8 -5 -7 -8 2 -8 8 0
5 -8 -8 -22 -11 -12 -20 -28 -20 -35 0 -7 -4 -13 -10 -13 -5 0 -10 -6 -10 -14
0 -24 -174 -206 -197 -206 -8 0 -12 -4 -9 -9 3 -5 -2 -11 -12 -14 -9 -4 -35
-18 -57 -32 -22 -13 -46 -27 -52 -30 -23 -9 -48 -16 -52 -15 -2 1 -7 -2 -10
-7 -10 -16 -101 -42 -101 -29 0 8 -3 7 -8 -1 -4 -6 -23 -14 -42 -16 -19 -3
-35 -6 -35 -7 0 -7 -202 -5 -212 2 -7 6 -14 5 -18 -3 -5 -8 -10 -8 -14 -1 -4
6 -24 14 -46 17 -78 11 -88 14 -95 26 -4 6 -13 8 -19 5 -6 -4 -11 -3 -11 3 0
6 -6 8 -13 5 -8 -3 -20 2 -27 10 -7 9 -16 13 -21 10 -5 -3 -9 0 -9 5 0 6 -5
11 -12 11 -14 0 -103 56 -142 90 -93 80 -157 160 -208 260 -18 36 -35 67 -38
70 -3 3 -7 12 -8 20 -2 8 -6 24 -9 35 -2 11 -5 26 -5 33 -1 6 -4 12 -7 12 -6
0 -12 32 -14 78 -1 12 -4 22 -7 22 -9 0 -5 213 4 228 4 7 2 12 -6 12 -9 0 -9
3 -2 8 11 7 24 50 27 90 0 12 5 22 10 22 4 0 6 3 4 8 -3 4 8 34 24 67 16 33
29 66 29 73 0 6 5 12 10 12 6 0 10 7 10 15 0 9 7 18 15 21 8 4 12 10 9 15 -3
5 2 12 10 15 9 3 13 10 10 15 -3 5 2 12 10 15 9 3 16 10 16 14 0 11 85 100 95
100 4 0 21 15 37 33 17 17 27 25 23 17 -3 -8 2 -5 13 7 11 12 22 19 26 16 3
-4 6 -1 6 5 0 10 38 28 53 24 4 -1 7 5 7 13 0 9 6 12 15 9 8 -4 15 -1 15 6 0
7 6 10 14 7 8 -3 20 1 26 8 7 8 16 12 21 9 5 -3 9 1 9 8 0 11 2 10 9 0 6 -11
10 -10 15 4 3 9 9 14 13 11 3 -4 14 -2 24 4 14 7 19 6 19 -3 0 -10 2 -10 8 -1
4 7 23 13 41 15 18 1 34 5 36 8 5 8 198 6 212 -3z"/>
<path d="M847 1624 c-1 -1 -23 -4 -48 -6 -59 -6 -104 -41 -114 -88 -5 -19 -9
-107 -10 -195 -1 -88 -3 -163 -4 -166 0 -3 -23 -5 -50 -3 -30 1 -51 -3 -54
-10 -2 -6 -4 -186 -3 -401 l1 -390 395 0 395 0 1 401 1 402 -44 -4 c-33 -3
-42 0 -37 9 5 8 2 7 -9 -2 -21 -17 -19 -31 -22 182 -2 148 -5 180 -19 195 -9
10 -16 23 -16 28 0 13 -52 43 -76 43 -170 4 -286 6 -287 5z m264 -261 c1 -71
0 -132 -1 -138 -1 -5 -2 -21 -3 -35 -2 -24 -4 -25 -89 -26 -62 -1 -85 2 -81
10 5 8 3 8 -8 1 -12 -9 -56 -12 -106 -6 -10 1 -13 40 -13 161 l0 160 150 0
150 0 1 -127z"/>
</g>
</svg>
